<svg xmlns="http://www.w3.org/2000/svg" xmlns:xlink="http://www.w3.org/1999/xlink" width="500" zoomAndPan="magnify" viewBox="0 0 375 374.999991" height="500" preserveAspectRatio="xMidYMid meet" version="1.0"><defs><g/></defs><g fill="#ffffff" fill-opacity="1"><g transform="translate(0.339848, 222.45006)"><g><path d="M 32.4375 -62.8125 C 36.9375 -62.8125 40.78125 -61.988281 43.96875 -60.34375 C 47.164062 -58.695312 49.578125 -56.390625 51.203125 -53.421875 C 52.835938 -50.453125 53.65625 -47.007812 53.65625 -43.09375 C 53.65625 -39.164062 52.835938 -35.726562 51.203125 -32.78125 C 49.578125 -29.832031 47.164062 -27.53125 43.96875 -25.875 C 40.78125 -24.226562 36.9375 -23.40625 32.4375 -23.40625 L 20.578125 -23.40625 L 20.578125 0 L 8.15625 0 L 8.15625 -62.8125 Z M 30.796875 -33.25 C 37.703125 -33.25 41.15625 -36.53125 41.15625 -43.09375 C 41.15625 -49.675781 37.703125 -52.96875 30.796875 -52.96875 L 20.578125 -52.96875 L 20.578125 -33.25 Z M 30.796875 -33.25 "/></g></g></g><g fill="#ffffff" fill-opacity="1"><g transform="translate(57.735901, 222.45006)"><g><path d="M 20.578125 -62.8125 L 20.578125 -10.390625 L 48.796875 -10.390625 L 48.796875 0 L 8.15625 0 L 8.15625 -62.8125 Z M 20.578125 -62.8125 "/></g></g></g><g fill="#ffffff" fill-opacity="1"><g transform="translate(108.601865, 222.45006)"><g><path d="M 60.28125 0 L 47.21875 0 L 42.484375 -14.484375 L 18.4375 -14.484375 L 13.703125 0 L 0.9375 0 L 22.640625 -62.8125 L 38.578125 -62.8125 Z M 29.859375 -49.703125 L 21.78125 -24.921875 L 39.046875 -24.921875 L 30.9375 -49.703125 Z M 29.859375 -49.703125 "/></g></g></g><g fill="#ffffff" fill-opacity="1"><g transform="translate(169.821458, 222.45006)"><g><path d="M 20.1875 0 L 8.15625 0 L 8.15625 -62.8125 L 22.375 -62.8125 L 47.59375 -22.34375 L 48.71875 -22.515625 L 48.71875 -62.8125 L 60.65625 -62.8125 L 60.65625 0 L 47.9375 0 L 21.265625 -43.21875 L 20.1875 -43.046875 Z M 20.1875 0 "/></g></g></g><g fill="#ffffff" fill-opacity="1"><g transform="translate(238.688129, 222.45006)"><g><path d="M 20.578125 0 L 8.15625 0 L 8.15625 -62.8125 L 20.578125 -62.8125 Z M 20.578125 0 "/></g></g></g><g fill="#ffffff" fill-opacity="1"><g transform="translate(267.472078, 222.45006)"><g><path d="M 47.984375 -62.8125 L 47.984375 -52.40625 L 20.578125 -52.40625 L 20.578125 -35.78125 L 45.453125 -35.78125 L 45.453125 -25.515625 L 20.578125 -25.515625 L 20.578125 0 L 8.15625 0 L 8.15625 -62.8125 Z M 47.984375 -62.8125 "/></g></g></g><g fill="#ffffff" fill-opacity="1"><g transform="translate(318.252119, 222.45006)"><g><path d="M 34.40625 0 L 22 0 L 22 -24.65625 L 0.296875 -62.8125 L 13.625 -62.8125 L 27.96875 -38.109375 L 29.046875 -38.109375 L 43.09375 -62.8125 L 56.109375 -62.8125 L 34.40625 -24.65625 Z M 34.40625 0 "/></g></g></g></svg>